<?xml version="1.0" standalone="no"?>
<!DOCTYPE svg PUBLIC "-//W3C//DTD SVG 20010904//EN"
 "http://www.w3.org/TR/2001/REC-SVG-20010904/DTD/svg10.dtd">
<svg version="1.0" xmlns="http://www.w3.org/2000/svg"
 width="960.000000pt" height="960.000000pt" viewBox="0 0 960.000000 960.000000"
 preserveAspectRatio="xMidYMid meet">

<g transform="translate(0.000000,960.000000) scale(0.100000,-0.100000)"
fill="#000000" stroke="none">
<path d="M8460 8288 c-52 -35 -85 -101 -84 -168 1 -70 19 -110 105 -243 138
-211 154 -287 146 -697 -8 -377 -33 -563 -103 -779 -108 -330 -302 -538 -669
-716 -143 -70 -404 -176 -476 -193 -145 -36 -346 -20 -553 43 -61 18 -235 83
-386 143 -307 122 -336 133 -435 161 -263 75 -750 115 -1130 92 -379 -23 -600
-55 -1025 -151 -399 -90 -521 -110 -715 -117 -186 -6 -303 8 -500 62 -332 91
-606 234 -761 397 -38 40 -108 128 -156 194 -100 139 -205 236 -316 293 -63
32 -64 27 -27 -179 20 -108 16 -218 -10 -292 -15 -42 -25 -52 -108 -106 -51
-32 -137 -85 -192 -117 -109 -64 -194 -138 -230 -200 -13 -22 -37 -77 -55
-122 -42 -109 -71 -151 -161 -222 -41 -33 -81 -72 -87 -86 -26 -58 -6 -121 60
-189 28 -28 47 -59 55 -88 14 -52 81 -132 150 -177 57 -38 81 -39 259 -6 154
28 270 32 353 10 31 -8 145 -50 253 -94 229 -92 284 -127 471 -296 l127 -116
0 -77 c1 -181 38 -366 131 -649 62 -185 63 -190 63 -298 0 -86 -6 -134 -27
-220 -71 -285 -173 -556 -323 -855 -157 -312 -244 -429 -364 -488 -53 -26 -62
-27 -210 -27 -146 0 -157 -1 -187 -23 -42 -30 -83 -100 -83 -140 0 -36 27 -68
64 -78 15 -3 26 -14 28 -27 4 -32 62 -65 125 -73 116 -14 358 23 448 69 73 37
185 118 260 189 96 89 221 234 485 563 128 160 281 346 339 415 135 160 399
425 521 523 l95 76 21 -22 c11 -12 99 -121 195 -242 557 -705 662 -886 628
-1080 -19 -108 -55 -152 -190 -228 -64 -36 -109 -105 -109 -166 0 -56 9 -91
23 -91 5 0 20 -11 33 -25 13 -14 34 -25 48 -25 16 0 27 -7 31 -20 6 -19 15
-20 148 -20 173 0 209 9 263 64 32 33 47 63 71 137 93 282 107 602 42 989 -26
156 -123 618 -180 853 -42 173 -42 177 -23 192 60 45 226 67 350 46 38 -7 168
-45 289 -86 289 -96 364 -109 626 -110 l206 0 41 -60 c99 -145 250 -294 397
-392 33 -22 111 -68 174 -102 158 -86 225 -133 307 -217 154 -156 209 -249
208 -356 0 -56 -6 -78 -37 -140 -20 -40 -64 -109 -97 -153 -34 -44 -73 -99
-87 -122 -14 -24 -27 -43 -30 -43 -4 0 -31 12 -61 27 -39 19 -69 26 -112 26
-70 0 -113 -22 -153 -80 -48 -68 -47 -173 3 -173 12 0 21 -10 25 -30 4 -17 17
-38 31 -46 27 -18 184 -60 260 -70 62 -7 156 15 222 53 83 47 230 205 324 348
145 221 361 578 380 628 25 65 24 186 -2 269 -11 34 -20 64 -20 66 0 6 186 1
260 -8 123 -15 212 -44 253 -83 63 -59 63 -62 18 -550 -23 -242 -46 -449 -52
-460 -7 -12 -20 -31 -31 -43 -22 -24 -33 -81 -24 -119 8 -31 79 -111 117 -130
15 -8 40 -14 55 -14 16 0 43 -3 60 -6 24 -5 37 -1 63 20 41 35 60 74 104 210
62 195 92 355 142 774 40 333 65 492 101 633 30 119 31 192 5 232 -30 45 -91
80 -183 106 -70 20 -108 41 -243 130 -201 133 -274 200 -317 288 -31 64 -33
72 -32 177 1 88 8 142 38 274 21 91 40 207 43 260 10 163 -23 363 -73 439 -76
117 -38 201 167 362 160 126 320 334 418 541 312 661 404 1402 238 1910 -44
133 -84 212 -189 369 -105 157 -138 183 -241 188 -63 3 -77 1 -107 -20z"/>
</g>
</svg>
